<svg width="24" height="24" viewBox="0 0 24 24" fill="none" xmlns="http://www.w3.org/2000/svg">
<path d="M15.1663 10.1256L10.6663 7.12562C10.5533 7.05025 10.4219 7.00696 10.2863 7.00039C10.1506 6.99382 10.0157 7.02421 9.89601 7.08831C9.77628 7.15241 9.6762 7.24782 9.60645 7.36436C9.5367 7.4809 9.49991 7.61419 9.5 7.75V13.75C9.49991 13.8858 9.5367 14.0191 9.60645 14.1356C9.6762 14.2522 9.77628 14.3476 9.89601 14.4117C10.0157 14.4758 10.1506 14.5062 10.2863 14.4996C10.4219 14.493 10.5533 14.4498 10.6663 14.3744L15.1663 11.3744C15.2691 11.3059 15.3535 11.2131 15.4118 11.1042C15.4702 10.9952 15.5007 10.8736 15.5007 10.75C15.5007 10.6264 15.4702 10.5048 15.4118 10.3958C15.3535 10.2869 15.2691 10.1941 15.1663 10.1256ZM11 12.3484V9.15625L13.3981 10.75L11 12.3484ZM20 4H3.5C3.10218 4 2.72064 4.15804 2.43934 4.43934C2.15804 4.72064 2 5.10218 2 5.5V16C2 16.3978 2.15804 16.7794 2.43934 17.0607C2.72064 17.342 3.10218 17.5 3.5 17.5H20C20.3978 17.5 20.7794 17.342 21.0607 17.0607C21.342 16.7794 21.5 16.3978 21.5 16V5.5C21.5 5.10218 21.342 4.72064 21.0607 4.43934C20.7794 4.15804 20.3978 4 20 4ZM20 16H3.5V5.5H20V16ZM21.5 19.75C21.5 19.9489 21.421 20.1397 21.2803 20.2803C21.1397 20.421 20.9489 20.5 20.75 20.5H2.75C2.55109 20.5 2.36032 20.421 2.21967 20.2803C2.07902 20.1397 2 19.9489 2 19.75C2 19.5511 2.07902 19.3603 2.21967 19.2197C2.36032 19.079 2.55109 19 2.75 19H20.75C20.9489 19 21.1397 19.079 21.2803 19.2197C21.421 19.3603 21.5 19.5511 21.5 19.75Z" fill="#773EFA"/>
<rect x="15.0391" y="14.8828" width="8" height="8" rx="4" fill="white"/>
<path d="M22.0391 18.8828C22.0391 19.0419 21.9758 19.1946 21.8633 19.3071C21.7508 19.4196 21.5982 19.4828 21.4391 19.4828H19.6391V21.2828C19.6391 21.4419 19.5758 21.5946 19.4633 21.7071C19.3508 21.8196 19.1982 21.8828 19.0391 21.8828C18.8799 21.8828 18.7273 21.8196 18.6148 21.7071C18.5023 21.5946 18.4391 21.4419 18.4391 21.2828V19.4828H16.6391C16.4799 19.4828 16.3273 19.4196 16.2148 19.3071C16.1023 19.1946 16.0391 19.0419 16.0391 18.8828C16.0391 18.7237 16.1023 18.5711 16.2148 18.4585C16.3273 18.346 16.4799 18.2828 16.6391 18.2828H18.4391V16.4828C18.4391 16.3237 18.5023 16.1711 18.6148 16.0585C18.7273 15.946 18.8799 15.8828 19.0391 15.8828C19.1982 15.8828 19.3508 15.946 19.4633 16.0585C19.5758 16.1711 19.6391 16.3237 19.6391 16.4828V18.2828H21.4391C21.5982 18.2828 21.7508 18.346 21.8633 18.4585C21.9758 18.5711 22.0391 18.7237 22.0391 18.8828Z" fill="#773EFA"/>
</svg>
