<svg width="382" height="237" viewBox="0 0 382 237" fill="none" xmlns="http://www.w3.org/2000/svg">
<g clip-path="url(#clip0_1084_45936)">
<path d="M44.4565 141.501C72.1529 92.4203 160.387 89.0978 246.527 131.954C258.115 93.1767 280.012 66.8761 306.687 65.0035C350.141 61.9819 389.907 125.109 395.538 205.922C398.63 251.126 390.883 293.633 375.492 321.673C375.474 321.738 375.391 321.785 375.374 321.846C375.374 321.846 375.397 321.888 375.356 321.911C374.594 323.536 373.81 325.114 372.919 326.698C343.618 378.69 246.34 379.332 155.644 328.219C64.9588 277.048 15.1562 193.489 44.4565 141.501Z" fill="white"/>
<path d="M260.189 164.249C256.887 180.143 255.647 198.064 256.952 216.932C260.235 264.182 278.546 303.55 301.657 318.752C305.954 321.579 326.588 337.232 342.289 309.414C364.876 269.4 328.289 205.665 260.189 164.249Z" fill="#773EFA"/>
<path d="M376.865 208.626C372.568 146.448 342.221 97.865 309.134 100.171C290.898 101.441 275.652 117.859 266.305 142.7C320.435 174.255 359.244 217.401 374.329 257.771C377.107 242.77 378.07 226.086 376.865 208.626Z" fill="url(#paint0_linear_1084_45936)"/>
<path d="M167.564 310.05C208.881 333.31 251.758 343.342 285.497 340.183C260.613 316.292 241.849 270.476 238.157 216.838C236.612 194.478 237.844 173.098 241.371 153.77C171.603 118.603 99.9484 120.786 77.6895 160.235C54.2938 201.791 94.5555 268.862 167.564 310.05Z" fill="url(#paint1_linear_1084_45936)"/>
</g>
<defs>
<linearGradient id="paint0_linear_1084_45936" x1="288.329" y1="109.543" x2="379.52" y2="219.58" gradientUnits="userSpaceOnUse">
<stop stop-color="#028BFF"/>
<stop offset="1" stop-color="#00E2AA"/>
</linearGradient>
<linearGradient id="paint1_linear_1084_45936" x1="289.1" y1="275.921" x2="101.33" y2="178.471" gradientUnits="userSpaceOnUse">
<stop offset="0.06" stop-color="#773EFA"/>
<stop offset="0.95" stop-color="#FF3F41"/>
</linearGradient>
<clipPath id="clip0_1084_45936">
<rect width="372.6" height="305.915" fill="white" transform="translate(81.7993) rotate(15.5091)"/>
</clipPath>
</defs>
</svg>
