<svg width="126" height="93" viewBox="0 0 126 93" fill="none" xmlns="http://www.w3.org/2000/svg">
<g clip-path="url(#clip0_1084_45761)">
<path d="M124.458 66.4902C118.295 41.6361 80.0669 29.4613 37.1454 37.7595C36.7828 19.3736 30.3914 5.19811 18.9398 1.13729C0.281548 -5.46513 -24.7988 17.3422 -37.0829 52.0404C-43.929 71.4564 -45.7014 91.0085 -42.3695 105.155C-42.3695 105.186 -42.3388 105.217 -42.3388 105.245C-42.3388 105.245 -42.3542 105.261 -42.3388 105.276C-42.2026 106.08 -42.0511 106.866 -41.8535 107.668C-35.3412 133.991 7.17169 146.091 53.0913 134.732C99.0129 123.345 130.97 92.8116 124.458 66.4902Z" fill="white"/>
<path d="M27.2397 50.2393C26.7544 57.5994 25.1201 65.5963 22.2563 73.6988C15.0784 93.9875 2.27829 108.999 -9.6874 112.847C-11.9125 113.563 -22.8481 117.909 -26.3431 103.822C-31.3707 83.5583 -7.60808 60.0988 27.2397 50.2393Z" fill="#773EFA"/>
<path d="M-29.2356 55.4933C-19.8 28.792 -0.610376 11.2079 13.5958 16.2374C21.4258 19.0092 26.1062 28.0497 27.1804 40.0614C-0.353331 47.3006 -22.5871 61.4761 -34.0963 77.3185C-33.4901 70.413 -31.8846 62.9915 -29.2356 55.4933Z" fill="url(#paint0_linear_1084_45761)"/>
<path d="M50.0797 125.329C29.1637 130.493 9.17234 129.676 -5.21603 124.194C8.58154 116.757 22.3638 98.9769 30.4969 75.9413C33.8902 66.3389 35.9484 56.8285 36.7521 47.9376C71.5712 41.0168 102.679 50.6787 107.631 70.6548C112.826 91.6916 87.0491 116.166 50.0797 125.329Z" fill="url(#paint1_linear_1084_45761)"/>
</g>
<defs>
<linearGradient id="paint0_linear_1084_45761" x1="21.5659" y1="22.8686" x2="-31.7292" y2="59.9665" gradientUnits="userSpaceOnUse">
<stop stop-color="#028BFF"/>
<stop offset="1" stop-color="#00E2AA"/>
</linearGradient>
<linearGradient id="paint1_linear_1084_45761" x1="1.01427" y1="95.6201" x2="95.0652" y2="75.7668" gradientUnits="userSpaceOnUse">
<stop offset="0.06" stop-color="#773EFA"/>
<stop offset="0.95" stop-color="#FF3F41"/>
</linearGradient>
<clipPath id="clip0_1084_45761">
<rect width="169.3" height="139" fill="white" transform="matrix(-1 0 0 1 125.3 0)"/>
</clipPath>
</defs>
</svg>
