<svg width="146" height="86" viewBox="0 0 146 86" fill="none" xmlns="http://www.w3.org/2000/svg">
<g clip-path="url(#clip0_1084_45767)">
<path d="M0.841949 13.4902C7.00511 -11.3639 45.2328 -23.5387 88.1543 -15.2405C88.5168 -33.6264 94.9082 -47.8019 106.36 -51.8627C125.018 -58.4651 150.099 -35.6578 162.383 -0.959599C169.229 18.4564 171.001 38.0085 167.669 52.1552C167.669 52.1859 167.638 52.2166 167.638 52.2453C167.638 52.2453 167.654 52.2607 167.638 52.276C167.502 53.0798 167.351 53.8662 167.153 54.668C160.641 80.9914 118.128 93.0914 72.2084 81.7318C26.2868 70.3454 -5.67032 39.8116 0.841949 13.4902Z" fill="white"/>
<path d="M98.0601 -2.76074C98.5454 4.59937 100.18 12.5963 103.044 20.6988C110.221 40.9875 123.022 55.9993 134.987 59.8472C137.212 60.5627 148.148 64.9093 151.643 50.8221C156.671 30.5583 132.908 7.09877 98.0601 -2.76074Z" fill="#773EFA"/>
<path d="M154.536 2.49325C145.1 -24.208 125.91 -41.7921 111.704 -36.7626C103.874 -33.9908 99.1937 -24.9503 98.1195 -12.9386C125.653 -5.69935 147.887 8.4761 159.396 24.3185C158.79 17.413 157.185 9.99147 154.536 2.49325Z" fill="url(#paint0_linear_1084_45767)"/>
<path d="M75.2201 72.3291C96.1361 77.4929 116.127 76.6757 130.516 71.1935C116.718 63.7567 102.936 45.9769 94.8029 22.9413C91.4096 13.3389 89.3514 3.82846 88.5477 -5.06236C53.7286 -11.9832 22.6213 -2.32127 17.6685 17.6548C12.474 38.6916 38.2507 63.1659 75.2201 72.3291Z" fill="url(#paint1_linear_1084_45767)"/>
</g>
<defs>
<linearGradient id="paint0_linear_1084_45767" x1="103.734" y1="-30.1314" x2="157.029" y2="6.96648" gradientUnits="userSpaceOnUse">
<stop stop-color="#028BFF"/>
<stop offset="1" stop-color="#00E2AA"/>
</linearGradient>
<linearGradient id="paint1_linear_1084_45767" x1="124.286" y1="42.6201" x2="30.2346" y2="22.7668" gradientUnits="userSpaceOnUse">
<stop offset="0.06" stop-color="#773EFA"/>
<stop offset="0.95" stop-color="#FF3F41"/>
</linearGradient>
<clipPath id="clip0_1084_45767">
<rect width="169.3" height="139" fill="white" transform="translate(0 -53)"/>
</clipPath>
</defs>
</svg>
